<mxfile host="app.diagrams.net" modified="2023-11-20T10:24:56.872Z" agent="Mozilla/5.0 (Macintosh; Intel Mac OS X 10_15_7) AppleWebKit/537.36 (KHTML, like Gecko) Chrome/119.0.0.0 Safari/537.36" etag="1Lo_hU3zaZPY_yRwWtYx" version="22.1.3" type="github">
  <diagram id="C5RBs43oDa-KdzZeNtuy" name="Page-1">
    <mxGraphModel dx="911" dy="559" grid="1" gridSize="10" guides="1" tooltips="1" connect="1" arrows="1" fold="1" page="1" pageScale="1" pageWidth="827" pageHeight="1169" math="0" shadow="0">
      <root>
        <mxCell id="WIyWlLk6GJQsqaUBKTNV-0" />
        <mxCell id="WIyWlLk6GJQsqaUBKTNV-1" parent="WIyWlLk6GJQsqaUBKTNV-0" />
        <mxCell id="N2lU9NOobLm0wPK0MVBF-3" value="" style="edgeStyle=orthogonalEdgeStyle;rounded=0;orthogonalLoop=1;jettySize=auto;html=1;" edge="1" parent="WIyWlLk6GJQsqaUBKTNV-1">
          <mxGeometry relative="1" as="geometry">
            <mxPoint x="380" y="50" as="sourcePoint" />
            <mxPoint x="500" y="120" as="targetPoint" />
            <Array as="points">
              <mxPoint x="380" y="80" />
              <mxPoint x="500" y="80" />
            </Array>
          </mxGeometry>
        </mxCell>
        <mxCell id="N2lU9NOobLm0wPK0MVBF-4" style="edgeStyle=orthogonalEdgeStyle;rounded=0;orthogonalLoop=1;jettySize=auto;html=1;exitX=0.5;exitY=1;exitDx=0;exitDy=0;" edge="1" parent="WIyWlLk6GJQsqaUBKTNV-1" source="WIyWlLk6GJQsqaUBKTNV-3" target="N2lU9NOobLm0wPK0MVBF-0">
          <mxGeometry relative="1" as="geometry">
            <Array as="points">
              <mxPoint x="380" y="80" />
              <mxPoint x="280" y="80" />
            </Array>
          </mxGeometry>
        </mxCell>
        <mxCell id="WIyWlLk6GJQsqaUBKTNV-3" value="开始" style="rounded=1;whiteSpace=wrap;html=1;fontSize=12;glass=0;strokeWidth=1;shadow=0;" parent="WIyWlLk6GJQsqaUBKTNV-1" vertex="1">
          <mxGeometry x="320" y="10" width="120" height="40" as="geometry" />
        </mxCell>
        <mxCell id="N2lU9NOobLm0wPK0MVBF-10" style="edgeStyle=orthogonalEdgeStyle;rounded=0;orthogonalLoop=1;jettySize=auto;html=1;exitX=0.5;exitY=1;exitDx=0;exitDy=0;entryX=0.5;entryY=0;entryDx=0;entryDy=0;" edge="1" parent="WIyWlLk6GJQsqaUBKTNV-1" source="N2lU9NOobLm0wPK0MVBF-0" target="N2lU9NOobLm0wPK0MVBF-9">
          <mxGeometry relative="1" as="geometry">
            <Array as="points">
              <mxPoint x="280" y="360" />
              <mxPoint x="414" y="360" />
            </Array>
          </mxGeometry>
        </mxCell>
        <mxCell id="N2lU9NOobLm0wPK0MVBF-0" value="检查项目类别" style="rounded=0;whiteSpace=wrap;html=1;" vertex="1" parent="WIyWlLk6GJQsqaUBKTNV-1">
          <mxGeometry x="220" y="120" width="120" height="60" as="geometry" />
        </mxCell>
        <mxCell id="N2lU9NOobLm0wPK0MVBF-6" value="" style="edgeStyle=orthogonalEdgeStyle;rounded=0;orthogonalLoop=1;jettySize=auto;html=1;" edge="1" parent="WIyWlLk6GJQsqaUBKTNV-1" source="N2lU9NOobLm0wPK0MVBF-1" target="N2lU9NOobLm0wPK0MVBF-5">
          <mxGeometry relative="1" as="geometry" />
        </mxCell>
        <mxCell id="N2lU9NOobLm0wPK0MVBF-1" value="检查类型维护" style="rounded=0;whiteSpace=wrap;html=1;" vertex="1" parent="WIyWlLk6GJQsqaUBKTNV-1">
          <mxGeometry x="440" y="120" width="120" height="60" as="geometry" />
        </mxCell>
        <mxCell id="N2lU9NOobLm0wPK0MVBF-8" value="" style="edgeStyle=orthogonalEdgeStyle;rounded=0;orthogonalLoop=1;jettySize=auto;html=1;" edge="1" parent="WIyWlLk6GJQsqaUBKTNV-1" source="N2lU9NOobLm0wPK0MVBF-5" target="N2lU9NOobLm0wPK0MVBF-7">
          <mxGeometry relative="1" as="geometry" />
        </mxCell>
        <mxCell id="N2lU9NOobLm0wPK0MVBF-5" value="检查项目明细" style="rounded=0;whiteSpace=wrap;html=1;" vertex="1" parent="WIyWlLk6GJQsqaUBKTNV-1">
          <mxGeometry x="440" y="200" width="120" height="60" as="geometry" />
        </mxCell>
        <mxCell id="N2lU9NOobLm0wPK0MVBF-20" style="edgeStyle=orthogonalEdgeStyle;rounded=0;orthogonalLoop=1;jettySize=auto;html=1;exitX=0.5;exitY=1;exitDx=0;exitDy=0;entryX=0.5;entryY=0;entryDx=0;entryDy=0;" edge="1" parent="WIyWlLk6GJQsqaUBKTNV-1" source="N2lU9NOobLm0wPK0MVBF-7" target="N2lU9NOobLm0wPK0MVBF-9">
          <mxGeometry relative="1" as="geometry" />
        </mxCell>
        <mxCell id="N2lU9NOobLm0wPK0MVBF-7" value="隐患排查清单" style="whiteSpace=wrap;html=1;" vertex="1" parent="WIyWlLk6GJQsqaUBKTNV-1">
          <mxGeometry x="440" y="280" width="120" height="60" as="geometry" />
        </mxCell>
        <mxCell id="N2lU9NOobLm0wPK0MVBF-13" value="" style="edgeStyle=orthogonalEdgeStyle;rounded=0;orthogonalLoop=1;jettySize=auto;html=1;" edge="1" parent="WIyWlLk6GJQsqaUBKTNV-1" source="N2lU9NOobLm0wPK0MVBF-9" target="N2lU9NOobLm0wPK0MVBF-12">
          <mxGeometry relative="1" as="geometry" />
        </mxCell>
        <mxCell id="N2lU9NOobLm0wPK0MVBF-15" value="" style="edgeStyle=orthogonalEdgeStyle;rounded=0;orthogonalLoop=1;jettySize=auto;html=1;" edge="1" parent="WIyWlLk6GJQsqaUBKTNV-1" source="N2lU9NOobLm0wPK0MVBF-9" target="N2lU9NOobLm0wPK0MVBF-14">
          <mxGeometry relative="1" as="geometry" />
        </mxCell>
        <mxCell id="N2lU9NOobLm0wPK0MVBF-9" value="隐患排查任务" style="rounded=0;whiteSpace=wrap;html=1;" vertex="1" parent="WIyWlLk6GJQsqaUBKTNV-1">
          <mxGeometry x="354" y="380" width="120" height="60" as="geometry" />
        </mxCell>
        <mxCell id="N2lU9NOobLm0wPK0MVBF-17" value="" style="edgeStyle=orthogonalEdgeStyle;rounded=0;orthogonalLoop=1;jettySize=auto;html=1;" edge="1" parent="WIyWlLk6GJQsqaUBKTNV-1" source="N2lU9NOobLm0wPK0MVBF-12">
          <mxGeometry relative="1" as="geometry">
            <mxPoint x="280" y="600" as="targetPoint" />
          </mxGeometry>
        </mxCell>
        <mxCell id="N2lU9NOobLm0wPK0MVBF-12" value="排查检查任务" style="whiteSpace=wrap;html=1;rounded=0;" vertex="1" parent="WIyWlLk6GJQsqaUBKTNV-1">
          <mxGeometry x="220" y="480" width="120" height="60" as="geometry" />
        </mxCell>
        <mxCell id="N2lU9NOobLm0wPK0MVBF-19" value="" style="edgeStyle=orthogonalEdgeStyle;rounded=0;orthogonalLoop=1;jettySize=auto;html=1;" edge="1" parent="WIyWlLk6GJQsqaUBKTNV-1" source="N2lU9NOobLm0wPK0MVBF-14">
          <mxGeometry relative="1" as="geometry">
            <mxPoint x="560" y="600" as="targetPoint" />
          </mxGeometry>
        </mxCell>
        <mxCell id="N2lU9NOobLm0wPK0MVBF-14" value="上报登记任务" style="whiteSpace=wrap;html=1;rounded=0;" vertex="1" parent="WIyWlLk6GJQsqaUBKTNV-1">
          <mxGeometry x="500" y="480" width="120" height="60" as="geometry" />
        </mxCell>
        <mxCell id="N2lU9NOobLm0wPK0MVBF-26" style="edgeStyle=orthogonalEdgeStyle;rounded=0;orthogonalLoop=1;jettySize=auto;html=1;exitX=0;exitY=0.5;exitDx=0;exitDy=0;entryX=0;entryY=0.5;entryDx=0;entryDy=0;" edge="1" parent="WIyWlLk6GJQsqaUBKTNV-1" source="N2lU9NOobLm0wPK0MVBF-21" target="N2lU9NOobLm0wPK0MVBF-24">
          <mxGeometry relative="1" as="geometry">
            <Array as="points">
              <mxPoint x="200" y="640" />
              <mxPoint x="200" y="1170" />
            </Array>
          </mxGeometry>
        </mxCell>
        <mxCell id="N2lU9NOobLm0wPK0MVBF-27" value="是" style="edgeLabel;html=1;align=center;verticalAlign=middle;resizable=0;points=[];" vertex="1" connectable="0" parent="N2lU9NOobLm0wPK0MVBF-26">
          <mxGeometry x="-0.3083" relative="1" as="geometry">
            <mxPoint as="offset" />
          </mxGeometry>
        </mxCell>
        <mxCell id="N2lU9NOobLm0wPK0MVBF-31" style="edgeStyle=orthogonalEdgeStyle;rounded=0;orthogonalLoop=1;jettySize=auto;html=1;exitX=0.5;exitY=1;exitDx=0;exitDy=0;entryX=0.5;entryY=0;entryDx=0;entryDy=0;" edge="1" parent="WIyWlLk6GJQsqaUBKTNV-1" source="N2lU9NOobLm0wPK0MVBF-21" target="N2lU9NOobLm0wPK0MVBF-29">
          <mxGeometry relative="1" as="geometry" />
        </mxCell>
        <mxCell id="N2lU9NOobLm0wPK0MVBF-21" value="检查结果是否合格" style="rhombus;whiteSpace=wrap;html=1;" vertex="1" parent="WIyWlLk6GJQsqaUBKTNV-1">
          <mxGeometry x="215" y="600" width="130" height="80" as="geometry" />
        </mxCell>
        <mxCell id="N2lU9NOobLm0wPK0MVBF-22" style="edgeStyle=orthogonalEdgeStyle;rounded=0;orthogonalLoop=1;jettySize=auto;html=1;exitX=0.5;exitY=1;exitDx=0;exitDy=0;" edge="1" parent="WIyWlLk6GJQsqaUBKTNV-1" source="N2lU9NOobLm0wPK0MVBF-21" target="N2lU9NOobLm0wPK0MVBF-21">
          <mxGeometry relative="1" as="geometry" />
        </mxCell>
        <mxCell id="N2lU9NOobLm0wPK0MVBF-25" style="edgeStyle=orthogonalEdgeStyle;rounded=0;orthogonalLoop=1;jettySize=auto;html=1;exitX=1;exitY=0.5;exitDx=0;exitDy=0;entryX=1;entryY=0.5;entryDx=0;entryDy=0;" edge="1" parent="WIyWlLk6GJQsqaUBKTNV-1" source="N2lU9NOobLm0wPK0MVBF-23" target="N2lU9NOobLm0wPK0MVBF-24">
          <mxGeometry relative="1" as="geometry" />
        </mxCell>
        <mxCell id="N2lU9NOobLm0wPK0MVBF-28" value="否" style="edgeLabel;html=1;align=center;verticalAlign=middle;resizable=0;points=[];" vertex="1" connectable="0" parent="N2lU9NOobLm0wPK0MVBF-25">
          <mxGeometry x="-0.3464" y="1" relative="1" as="geometry">
            <mxPoint as="offset" />
          </mxGeometry>
        </mxCell>
        <mxCell id="N2lU9NOobLm0wPK0MVBF-30" value="" style="edgeStyle=orthogonalEdgeStyle;rounded=0;orthogonalLoop=1;jettySize=auto;html=1;" edge="1" parent="WIyWlLk6GJQsqaUBKTNV-1" source="N2lU9NOobLm0wPK0MVBF-23" target="N2lU9NOobLm0wPK0MVBF-29">
          <mxGeometry relative="1" as="geometry">
            <Array as="points">
              <mxPoint x="560" y="720" />
              <mxPoint x="405" y="720" />
            </Array>
          </mxGeometry>
        </mxCell>
        <mxCell id="N2lU9NOobLm0wPK0MVBF-23" value="检查隐患是否存在" style="rhombus;whiteSpace=wrap;html=1;" vertex="1" parent="WIyWlLk6GJQsqaUBKTNV-1">
          <mxGeometry x="495" y="600" width="130" height="80" as="geometry" />
        </mxCell>
        <mxCell id="N2lU9NOobLm0wPK0MVBF-24" value="完成" style="rounded=1;whiteSpace=wrap;html=1;" vertex="1" parent="WIyWlLk6GJQsqaUBKTNV-1">
          <mxGeometry x="345" y="1140" width="120" height="60" as="geometry" />
        </mxCell>
        <mxCell id="N2lU9NOobLm0wPK0MVBF-33" value="" style="edgeStyle=orthogonalEdgeStyle;rounded=0;orthogonalLoop=1;jettySize=auto;html=1;" edge="1" parent="WIyWlLk6GJQsqaUBKTNV-1" source="N2lU9NOobLm0wPK0MVBF-29" target="N2lU9NOobLm0wPK0MVBF-32">
          <mxGeometry relative="1" as="geometry" />
        </mxCell>
        <mxCell id="N2lU9NOobLm0wPK0MVBF-29" value="隐患排查异常问题处理" style="whiteSpace=wrap;html=1;" vertex="1" parent="WIyWlLk6GJQsqaUBKTNV-1">
          <mxGeometry x="345" y="760" width="120" height="60" as="geometry" />
        </mxCell>
        <mxCell id="N2lU9NOobLm0wPK0MVBF-35" value="" style="edgeStyle=orthogonalEdgeStyle;rounded=0;orthogonalLoop=1;jettySize=auto;html=1;" edge="1" parent="WIyWlLk6GJQsqaUBKTNV-1" source="N2lU9NOobLm0wPK0MVBF-32" target="N2lU9NOobLm0wPK0MVBF-34">
          <mxGeometry relative="1" as="geometry" />
        </mxCell>
        <mxCell id="N2lU9NOobLm0wPK0MVBF-32" value="处理人" style="whiteSpace=wrap;html=1;" vertex="1" parent="WIyWlLk6GJQsqaUBKTNV-1">
          <mxGeometry x="345" y="860" width="120" height="60" as="geometry" />
        </mxCell>
        <mxCell id="N2lU9NOobLm0wPK0MVBF-39" value="" style="edgeStyle=orthogonalEdgeStyle;rounded=0;orthogonalLoop=1;jettySize=auto;html=1;" edge="1" parent="WIyWlLk6GJQsqaUBKTNV-1" source="N2lU9NOobLm0wPK0MVBF-34" target="N2lU9NOobLm0wPK0MVBF-38">
          <mxGeometry relative="1" as="geometry" />
        </mxCell>
        <mxCell id="N2lU9NOobLm0wPK0MVBF-34" value="整改人" style="whiteSpace=wrap;html=1;" vertex="1" parent="WIyWlLk6GJQsqaUBKTNV-1">
          <mxGeometry x="345" y="960" width="120" height="60" as="geometry" />
        </mxCell>
        <mxCell id="N2lU9NOobLm0wPK0MVBF-40" value="" style="edgeStyle=orthogonalEdgeStyle;rounded=0;orthogonalLoop=1;jettySize=auto;html=1;" edge="1" parent="WIyWlLk6GJQsqaUBKTNV-1" source="N2lU9NOobLm0wPK0MVBF-38" target="N2lU9NOobLm0wPK0MVBF-24">
          <mxGeometry relative="1" as="geometry" />
        </mxCell>
        <mxCell id="N2lU9NOobLm0wPK0MVBF-41" value="通过" style="edgeLabel;html=1;align=center;verticalAlign=middle;resizable=0;points=[];" vertex="1" connectable="0" parent="N2lU9NOobLm0wPK0MVBF-40">
          <mxGeometry x="-0.64" relative="1" as="geometry">
            <mxPoint as="offset" />
          </mxGeometry>
        </mxCell>
        <mxCell id="N2lU9NOobLm0wPK0MVBF-43" style="edgeStyle=orthogonalEdgeStyle;rounded=0;orthogonalLoop=1;jettySize=auto;html=1;exitX=1;exitY=0.5;exitDx=0;exitDy=0;entryX=1;entryY=0.5;entryDx=0;entryDy=0;" edge="1" parent="WIyWlLk6GJQsqaUBKTNV-1" source="N2lU9NOobLm0wPK0MVBF-38" target="N2lU9NOobLm0wPK0MVBF-29">
          <mxGeometry relative="1" as="geometry">
            <Array as="points">
              <mxPoint x="500" y="1080" />
              <mxPoint x="500" y="790" />
            </Array>
          </mxGeometry>
        </mxCell>
        <mxCell id="N2lU9NOobLm0wPK0MVBF-44" value="不通过" style="edgeLabel;html=1;align=center;verticalAlign=middle;resizable=0;points=[];" vertex="1" connectable="0" parent="N2lU9NOobLm0wPK0MVBF-43">
          <mxGeometry x="-0.0111" relative="1" as="geometry">
            <mxPoint as="offset" />
          </mxGeometry>
        </mxCell>
        <mxCell id="N2lU9NOobLm0wPK0MVBF-38" value="验收" style="whiteSpace=wrap;html=1;" vertex="1" parent="WIyWlLk6GJQsqaUBKTNV-1">
          <mxGeometry x="345" y="1050" width="120" height="60" as="geometry" />
        </mxCell>
      </root>
    </mxGraphModel>
  </diagram>
</mxfile>
